<svg version="1.1" id="Layer_1" xmlns="http://www.w3.org/2000/svg" xmlns:xlink="http://www.w3.org/1999/xlink" x="0px" y="0px"
	 width="100%" viewBox="0 0 962 172" enable-background="new 0 0 962 172" xml:space="preserve">
<path fill="#FEFEFF" opacity="1.000000" stroke="none" 
	d="
M644.000000,173.000000 
	C429.380554,173.000000 215.261078,173.000000 1.070809,173.000000 
	C1.070809,115.726585 1.070809,58.453060 1.070809,1.089765 
	C321.666656,1.089765 642.333313,1.089765 962.964783,1.089765 
	C962.964783,58.405556 962.964783,115.702789 962.964783,173.000000 
	C856.786377,173.000000 750.643188,173.000000 644.000000,173.000000 
M958.000061,90.500000 
	C958.000061,62.745808 958.000061,34.991619 958.000061,7.296871 
	C824.343445,7.296871 691.303833,7.296871 558.308289,7.296871 
	C558.308289,60.649475 558.308289,113.704407 558.308289,166.703156 
	C691.656494,166.703156 824.696106,166.703156 958.000061,166.703156 
	C958.000061,141.438004 958.000061,116.469002 958.000061,90.500000 
M424.754608,118.225479 
	C420.883179,129.353500 417.011719,140.481522 413.003876,152.001572 
	C421.529816,152.001572 429.525269,151.825943 437.506622,152.084595 
	C440.887756,152.194168 442.388092,151.300964 443.364960,147.863037 
	C445.747864,139.476715 448.720764,131.258011 451.446228,123.001747 
	C465.972137,123.001747 479.965302,123.068001 493.956787,122.942467 
	C496.565430,122.919060 497.724884,123.723015 498.485870,126.248100 
	C500.784668,133.876205 503.297150,141.444229 505.946747,148.957962 
	C506.375916,150.174927 507.906250,151.837189 508.966705,151.866272 
	C517.588806,152.102737 526.220337,151.999207 534.872803,151.999207 
	C534.872803,151.136276 535.004333,150.601273 534.854126,150.162872 
	C520.853455,109.312035 506.859039,68.458939 492.682678,27.669065 
	C492.237152,26.387081 489.922546,25.000723 488.441010,24.956934 
	C479.783173,24.701033 471.105743,25.052729 462.452026,24.734724 
	C458.328949,24.583212 456.426788,25.775002 455.048401,29.866344 
	C445.191010,59.124950 435.026703,88.280151 424.754608,118.225479 
M282.847748,147.755005 
	C301.715698,157.567963 318.161835,156.130966 331.312378,135.707123 
	C331.312378,142.157974 331.312378,146.911072 331.312378,151.688644 
	C340.144348,151.688644 348.548279,151.688644 356.855896,151.688644 
	C356.855896,109.294785 356.855896,67.215584 356.855896,25.073954 
	C348.118286,25.073954 339.696991,25.073954 330.609497,25.073954 
	C330.609497,40.727848 330.609497,56.150238 330.609497,71.503624 
	C326.918488,67.604401 323.974579,63.407101 320.053619,60.551201 
	C307.028259,51.063957 285.897919,54.822285 275.142151,68.312943 
	C264.665619,81.453384 263.296936,96.851608 264.685028,112.834656 
	C265.889038,126.697746 270.813171,138.672577 282.847748,147.755005 
M84.448738,24.826202 
	C59.515701,24.826202 34.582668,24.826202 9.520165,24.826202 
	C9.520165,67.472656 9.520165,109.642845 9.520165,151.789078 
	C18.495577,151.789078 27.106716,151.789078 36.214367,151.789078 
	C36.214367,134.349854 36.214367,117.118668 36.214367,99.313660 
	C53.743900,99.313660 70.781693,99.313660 87.687325,99.313660 
	C87.687325,91.642830 87.687325,84.559509 87.687325,77.074448 
	C70.463921,77.074448 53.553719,77.074448 36.415646,77.074448 
	C36.415646,66.929688 36.415646,57.198105 36.415646,46.899792 
	C55.507339,46.899792 74.364983,46.899792 93.211426,46.899792 
	C93.211426,39.257275 93.211426,32.186058 93.211426,24.826178 
	C90.398956,24.826178 87.914597,24.826178 84.448738,24.826202 
M246.673477,85.100945 
	C246.474411,84.293449 246.243210,83.492355 246.080978,82.677528 
	C242.090363,62.635887 226.430405,52.072678 206.415146,55.998692 
	C196.455658,57.952259 189.554581,63.931023 184.218231,72.771706 
	C184.218231,67.450386 184.218231,62.129070 184.218231,56.740273 
	C175.464035,56.740273 167.370987,56.740273 159.286819,56.740273 
	C159.286819,88.594658 159.286819,120.163956 159.286819,151.661865 
	C168.134064,151.661865 176.683853,151.661865 185.543915,151.661865 
	C185.543915,149.175201 185.532394,147.030014 185.545731,144.884979 
	C185.652390,127.730736 185.446014,110.566444 185.989731,93.425980 
	C186.330185,82.692490 195.816299,75.750801 206.457733,77.471283 
	C214.812088,78.821999 219.988312,84.450294 220.193863,93.893211 
	C220.574387,111.376640 220.400101,128.872162 220.455338,146.362656 
	C220.460983,148.151077 220.456085,149.939529 220.456085,151.699921 
	C229.609634,151.699921 238.187607,151.699921 246.821472,151.699921 
	C246.821472,129.593231 246.821472,107.792900 246.673477,85.100945 
M118.620941,56.448593 
	C116.196266,56.448593 113.771599,56.448593 111.535492,56.448593 
	C111.535492,88.721329 111.535492,120.275253 111.535492,151.632355 
	C120.495514,151.632355 129.067352,151.632355 137.646301,151.632355 
	C137.646301,119.823639 137.646301,88.393257 137.646301,56.448795 
	C131.497101,56.448795 125.542610,56.448795 118.620941,56.448593 
M137.986237,35.215385 
	C138.238327,34.085537 138.629822,32.966656 138.719711,31.824049 
	C139.268860,24.842875 134.123474,18.842922 126.756073,17.790590 
	C118.723373,16.643230 111.800201,21.303276 110.417664,28.788107 
	C109.213692,35.306213 113.768372,41.973663 120.630127,43.737808 
	C127.522743,45.509884 133.526642,42.780727 137.986237,35.215385 
z"/>
<path fill="#2F089D" opacity="1.000000" stroke="none" 
	d="
M958.000061,91.000000 
	C958.000061,116.469002 958.000061,141.438004 958.000061,166.703156 
	C824.696106,166.703156 691.656494,166.703156 558.308289,166.703156 
	C558.308289,113.704407 558.308289,60.649475 558.308289,7.296871 
	C691.303833,7.296871 824.343445,7.296871 958.000061,7.296871 
	C958.000061,34.991619 958.000061,62.745808 958.000061,91.000000 
M872.088074,66.675392 
	C870.795593,68.906425 869.503174,71.137451 867.835510,74.016205 
	C863.324219,61.068058 854.181396,55.282974 841.490906,55.241997 
	C828.872986,55.201248 820.043030,61.583172 813.988586,72.656700 
	C813.988586,67.419800 813.988586,62.182903 813.988586,56.713692 
	C805.501343,56.713692 797.407532,56.713692 789.072632,56.713692 
	C789.072632,88.474396 789.072632,120.024506 789.072632,151.684784 
	C797.851257,151.684784 806.403809,151.684784 815.167847,151.684784 
	C815.167847,137.724350 815.128540,124.079971 815.185608,110.436005 
	C815.211365,104.281326 815.006897,98.082397 815.657532,91.983635 
	C816.665161,82.539276 823.153381,76.680580 831.289124,77.073486 
	C840.129822,77.500427 845.107666,83.410049 845.144470,93.801392 
	C845.206970,111.457344 845.162048,129.113678 845.162292,146.769852 
	C845.162292,148.381973 845.162231,149.994095 845.162231,151.660217 
	C854.079529,151.660217 862.456421,151.660217 871.018250,151.660217 
	C871.018250,132.009232 870.911316,112.698730 871.061829,93.390244 
	C871.141052,83.229393 877.292542,77.005730 886.657532,77.022552 
	C895.274780,77.038033 900.915283,83.350746 900.970703,93.345810 
	C901.056580,108.836136 900.996460,124.327263 900.998047,139.818054 
	C900.998474,143.765076 900.998047,147.712112 900.998047,151.776642 
	C909.909424,151.776642 918.321533,151.776642 926.869812,151.776642 
	C926.869812,128.116760 927.341248,104.667519 926.653381,81.252327 
	C926.349548,70.910095 920.746521,62.660778 910.838318,58.157887 
	C899.863342,53.170128 882.949646,53.782097 872.088074,66.675392 
M626.535339,99.540581 
	C640.951111,99.540581 655.366882,99.540581 669.734497,99.540581 
	C669.734497,91.748840 669.734497,84.655312 669.734497,76.963226 
	C652.448669,76.963226 635.427917,76.963226 618.546753,76.963226 
	C618.546753,66.631783 618.546753,56.907440 618.546753,46.737175 
	C637.813293,46.737175 656.710510,46.737175 675.499878,46.737175 
	C675.499878,39.201210 675.499878,32.128273 675.499878,25.079868 
	C647.403137,25.079868 619.652222,25.079868 591.684937,25.079868 
	C591.684937,67.399757 591.684937,109.464943 591.684937,151.664490 
	C600.616821,151.664490 609.319580,151.664490 618.339966,151.664490 
	C618.339966,134.210663 618.339966,117.097847 618.339966,99.540367 
	C620.955566,99.540367 623.252136,99.540367 626.535339,99.540581 
M767.540771,79.500175 
	C767.540771,61.383438 767.540771,43.266697 767.540771,25.144814 
	C758.404175,25.144814 749.835876,25.144814 741.252563,25.144814 
	C741.252563,67.532082 741.252563,109.599068 741.252563,151.701630 
	C750.070068,151.701630 758.624390,151.701630 767.540588,151.701630 
	C767.540588,127.765144 767.540588,104.132668 767.540771,79.500175 
M719.848389,122.500023 
	C719.848389,100.593079 719.848389,78.686134 719.848389,56.751091 
	C710.607727,56.751091 702.024292,56.751091 693.471436,56.751091 
	C693.471436,88.606293 693.471436,120.163300 693.471436,151.698502 
	C702.367432,151.698502 710.940002,151.698502 719.848389,151.698502 
	C719.848389,142.094055 719.848389,132.797043 719.848389,122.500023 
M692.568115,28.252947 
	C691.782288,35.468914 695.198120,41.143055 701.720581,43.456249 
	C708.149536,45.736282 715.552246,43.080891 719.043152,37.242592 
	C722.294189,31.805471 721.446594,26.110186 716.692627,21.448742 
	C709.286621,14.186829 696.955566,17.313070 692.568115,28.252947 
z"/>
<path fill="#2F099E" opacity="1.000000" stroke="none" 
	d="
M424.857239,117.846848 
	C435.026703,88.280151 445.191010,59.124950 455.048401,29.866344 
	C456.426788,25.775002 458.328949,24.583212 462.452026,24.734724 
	C471.105743,25.052729 479.783173,24.701033 488.441010,24.956934 
	C489.922546,25.000723 492.237152,26.387081 492.682678,27.669065 
	C506.859039,68.458939 520.853455,109.312035 534.854126,150.162872 
	C535.004333,150.601273 534.872803,151.136276 534.872803,151.999207 
	C526.220337,151.999207 517.588806,152.102737 508.966705,151.866272 
	C507.906250,151.837189 506.375916,150.174927 505.946747,148.957962 
	C503.297150,141.444229 500.784668,133.876205 498.485870,126.248100 
	C497.724884,123.723015 496.565430,122.919060 493.956787,122.942467 
	C479.965302,123.068001 465.972137,123.001747 451.446228,123.001747 
	C448.720764,131.258011 445.747864,139.476715 443.364960,147.863037 
	C442.388092,151.300964 440.887756,152.194168 437.506622,152.084595 
	C429.525269,151.825943 421.529816,152.001572 413.003876,152.001572 
	C417.011719,140.481522 420.883179,129.353500 424.857239,117.846848 
M464.787048,82.262589 
	C462.666229,88.690926 460.545441,95.119263 458.323456,101.854218 
	C469.313721,101.854218 479.614563,101.854218 490.566620,101.854218 
	C485.316498,85.679283 480.173279,69.833763 475.030060,53.988247 
	C474.658936,54.038872 474.287781,54.089493 473.916626,54.140118 
	C470.934631,63.257210 467.952637,72.374298 464.787048,82.262589 
z"/>
<path fill="#30099E" opacity="1.000000" stroke="none" 
	d="
M282.566132,147.526520 
	C270.813171,138.672577 265.889038,126.697746 264.685028,112.834656 
	C263.296936,96.851608 264.665619,81.453384 275.142151,68.312943 
	C285.897919,54.822285 307.028259,51.063957 320.053619,60.551201 
	C323.974579,63.407101 326.918488,67.604401 330.609497,71.503624 
	C330.609497,56.150238 330.609497,40.727848 330.609497,25.073954 
	C339.696991,25.073954 348.118286,25.073954 356.855896,25.073954 
	C356.855896,67.215584 356.855896,109.294785 356.855896,151.688644 
	C348.548279,151.688644 340.144348,151.688644 331.312378,151.688644 
	C331.312378,146.911072 331.312378,142.157974 331.312378,135.707123 
	C318.161835,156.130966 301.715698,157.567963 282.566132,147.526520 
M314.103210,132.185974 
	C317.633179,130.206131 321.932617,128.940140 324.552612,126.116096 
	C333.328003,116.657295 333.608704,93.509171 325.646088,83.424538 
	C318.136658,73.913826 304.471954,73.630783 297.401611,83.447037 
	C288.935944,95.200539 289.694763,108.194328 294.661469,121.023232 
	C297.831573,129.211533 304.291046,133.050232 314.103210,132.185974 
z"/>
<path fill="#310A9E" opacity="1.000000" stroke="none" 
	d="
M84.939484,24.826191 
	C87.914597,24.826178 90.398956,24.826178 93.211426,24.826178 
	C93.211426,32.186058 93.211426,39.257275 93.211426,46.899792 
	C74.364983,46.899792 55.507339,46.899792 36.415646,46.899792 
	C36.415646,57.198105 36.415646,66.929688 36.415646,77.074448 
	C53.553719,77.074448 70.463921,77.074448 87.687325,77.074448 
	C87.687325,84.559509 87.687325,91.642830 87.687325,99.313660 
	C70.781693,99.313660 53.743900,99.313660 36.214367,99.313660 
	C36.214367,117.118668 36.214367,134.349854 36.214367,151.789078 
	C27.106716,151.789078 18.495577,151.789078 9.520165,151.789078 
	C9.520165,109.642845 9.520165,67.472656 9.520165,24.826202 
	C34.582668,24.826202 59.515701,24.826202 84.939484,24.826191 
z"/>
<path fill="#310B9F" opacity="1.000000" stroke="none" 
	d="
M246.747467,85.546753 
	C246.821472,107.792900 246.821472,129.593231 246.821472,151.699921 
	C238.187607,151.699921 229.609634,151.699921 220.456085,151.699921 
	C220.456085,149.939529 220.460983,148.151077 220.455338,146.362656 
	C220.400101,128.872162 220.574387,111.376640 220.193863,93.893211 
	C219.988312,84.450294 214.812088,78.821999 206.457733,77.471283 
	C195.816299,75.750801 186.330185,82.692490 185.989731,93.425980 
	C185.446014,110.566444 185.652390,127.730736 185.545731,144.884979 
	C185.532394,147.030014 185.543915,149.175201 185.543915,151.661865 
	C176.683853,151.661865 168.134064,151.661865 159.286819,151.661865 
	C159.286819,120.163956 159.286819,88.594658 159.286819,56.740273 
	C167.370987,56.740273 175.464035,56.740273 184.218231,56.740273 
	C184.218231,62.129070 184.218231,67.450386 184.218231,72.771706 
	C189.554581,63.931023 196.455658,57.952259 206.415146,55.998692 
	C226.430405,52.072678 242.090363,62.635887 246.080978,82.677528 
	C246.243210,83.492355 246.474411,84.293449 246.747467,85.546753 
z"/>
<path fill="#330D9F" opacity="1.000000" stroke="none" 
	d="
M119.104530,56.448692 
	C125.542610,56.448795 131.497101,56.448795 137.646301,56.448795 
	C137.646301,88.393257 137.646301,119.823639 137.646301,151.632355 
	C129.067352,151.632355 120.495514,151.632355 111.535492,151.632355 
	C111.535492,120.275253 111.535492,88.721329 111.535492,56.448593 
	C113.771599,56.448593 116.196266,56.448593 119.104530,56.448692 
z"/>
<path fill="#330D9F" opacity="1.000000" stroke="none" 
	d="
M137.872009,35.583786 
	C133.526642,42.780727 127.522743,45.509884 120.630127,43.737808 
	C113.768372,41.973663 109.213692,35.306213 110.417664,28.788107 
	C111.800201,21.303276 118.723373,16.643230 126.756073,17.790590 
	C134.123474,18.842922 139.268860,24.842875 138.719711,31.824049 
	C138.629822,32.966656 138.238327,34.085537 137.872009,35.583786 
z"/>
<path fill="#FDFDFE" opacity="1.000000" stroke="none" 
	d="
M872.291443,66.377991 
	C882.949646,53.782097 899.863342,53.170128 910.838318,58.157887 
	C920.746521,62.660778 926.349548,70.910095 926.653381,81.252327 
	C927.341248,104.667519 926.869812,128.116760 926.869812,151.776642 
	C918.321533,151.776642 909.909424,151.776642 900.998047,151.776642 
	C900.998047,147.712112 900.998474,143.765076 900.998047,139.818054 
	C900.996460,124.327263 901.056580,108.836136 900.970703,93.345810 
	C900.915283,83.350746 895.274780,77.038033 886.657532,77.022552 
	C877.292542,77.005730 871.141052,83.229393 871.061829,93.390244 
	C870.911316,112.698730 871.018250,132.009232 871.018250,151.660217 
	C862.456421,151.660217 854.079529,151.660217 845.162231,151.660217 
	C845.162231,149.994095 845.162292,148.381973 845.162292,146.769852 
	C845.162048,129.113678 845.206970,111.457344 845.144470,93.801392 
	C845.107666,83.410049 840.129822,77.500427 831.289124,77.073486 
	C823.153381,76.680580 816.665161,82.539276 815.657532,91.983635 
	C815.006897,98.082397 815.211365,104.281326 815.185608,110.436005 
	C815.128540,124.079971 815.167847,137.724350 815.167847,151.684784 
	C806.403809,151.684784 797.851257,151.684784 789.072632,151.684784 
	C789.072632,120.024506 789.072632,88.474396 789.072632,56.713692 
	C797.407532,56.713692 805.501343,56.713692 813.988586,56.713692 
	C813.988586,62.182903 813.988586,67.419800 813.988586,72.656700 
	C820.043030,61.583172 828.872986,55.201248 841.490906,55.241997 
	C854.181396,55.282974 863.324219,61.068058 867.835510,74.016205 
	C869.503174,71.137451 870.795593,68.906425 872.291443,66.377991 
z"/>
<path fill="#FBFAFD" opacity="1.000000" stroke="none" 
	d="
M626.042053,99.540474 
	C623.252136,99.540367 620.955566,99.540367 618.339966,99.540367 
	C618.339966,117.097847 618.339966,134.210663 618.339966,151.664490 
	C609.319580,151.664490 600.616821,151.664490 591.684937,151.664490 
	C591.684937,109.464943 591.684937,67.399757 591.684937,25.079868 
	C619.652222,25.079868 647.403137,25.079868 675.499878,25.079868 
	C675.499878,32.128273 675.499878,39.201210 675.499878,46.737175 
	C656.710510,46.737175 637.813293,46.737175 618.546753,46.737175 
	C618.546753,56.907440 618.546753,66.631783 618.546753,76.963226 
	C635.427917,76.963226 652.448669,76.963226 669.734497,76.963226 
	C669.734497,84.655312 669.734497,91.748840 669.734497,99.540581 
	C655.366882,99.540581 640.951111,99.540581 626.042053,99.540474 
z"/>
<path fill="#FBFAFD" opacity="1.000000" stroke="none" 
	d="
M767.540649,80.000183 
	C767.540588,104.132668 767.540588,127.765144 767.540588,151.701630 
	C758.624390,151.701630 750.070068,151.701630 741.252563,151.701630 
	C741.252563,109.599068 741.252563,67.532082 741.252563,25.144814 
	C749.835876,25.144814 758.404175,25.144814 767.540771,25.144814 
	C767.540771,43.266697 767.540771,61.383438 767.540649,80.000183 
z"/>
<path fill="#FAF9FD" opacity="1.000000" stroke="none" 
	d="
M719.848389,123.000031 
	C719.848389,132.797043 719.848389,142.094055 719.848389,151.698502 
	C710.940002,151.698502 702.367432,151.698502 693.471436,151.698502 
	C693.471436,120.163300 693.471436,88.606293 693.471436,56.751091 
	C702.024292,56.751091 710.607727,56.751091 719.848389,56.751091 
	C719.848389,78.686134 719.848389,100.593079 719.848389,123.000031 
z"/>
<path fill="#FBFAFD" opacity="1.000000" stroke="none" 
	d="
M692.685425,27.879198 
	C696.955566,17.313070 709.286621,14.186829 716.692627,21.448742 
	C721.446594,26.110186 722.294189,31.805471 719.043152,37.242592 
	C715.552246,43.080891 708.149536,45.736282 701.720581,43.456249 
	C695.198120,41.143055 691.782288,35.468914 692.685425,27.879198 
z"/>
<path fill="#FCFBFE" opacity="1.000000" stroke="none" 
	d="
M464.878845,81.876991 
	C467.952637,72.374298 470.934631,63.257210 473.916626,54.140118 
	C474.287781,54.089493 474.658936,54.038872 475.030060,53.988247 
	C480.173279,69.833763 485.316498,85.679283 490.566620,101.854218 
	C479.614563,101.854218 469.313721,101.854218 458.323456,101.854218 
	C460.545441,95.119263 462.666229,88.690926 464.878845,81.876991 
z"/>
<path fill="#FDFCFE" opacity="1.000000" stroke="none" 
	d="
M313.664246,132.224930 
	C304.291046,133.050232 297.831573,129.211533 294.661469,121.023232 
	C289.694763,108.194328 288.935944,95.200539 297.401611,83.447037 
	C304.471954,73.630783 318.136658,73.913826 325.646088,83.424538 
	C333.608704,93.509171 333.328003,116.657295 324.552612,126.116096 
	C321.932617,128.940140 317.633179,130.206131 313.664246,132.224930 
z"/>
</svg>