<svg version="1.1" id="Layer_1" xmlns="http://www.w3.org/2000/svg" xmlns:xlink="http://www.w3.org/1999/xlink" x="0px" y="0px"
	 width="100%" viewBox="0 0 848 293" enable-background="new 0 0 848 293" xml:space="preserve">
<path fill="#FEFEFF" opacity="1.000000" stroke="none" 
	d="
M672.000000,294.000000 
	C448.000000,294.000000 224.500000,294.000000 1.000000,294.000000 
	C1.000000,196.333328 1.000000,98.666664 1.000000,1.000000 
	C283.666656,1.000000 566.333313,1.000000 849.000000,1.000000 
	C849.000000,98.666664 849.000000,196.333328 849.000000,294.000000 
	C790.166687,294.000000 731.333313,294.000000 672.000000,294.000000 
M813.499023,166.559265 
	C819.446960,166.559265 825.394897,166.559265 831.379211,166.559265 
	C831.379211,161.332474 831.379211,156.767960 831.379211,152.259583 
	C559.100525,152.259583 287.172760,152.259583 15.253534,152.259583 
	C15.253534,157.098007 15.253534,161.653107 15.253534,166.559036 
	C281.223480,166.559036 546.861389,166.559036 813.499023,166.559265 
M826.243408,198.775452 
	C828.095825,197.946136 831.350037,197.361923 831.545715,196.242950 
	C832.212158,192.431061 831.800659,188.430695 831.800659,184.371307 
	C559.237427,184.371307 287.395752,184.371307 15.293861,184.371307 
	C15.293861,189.191162 15.293861,193.726624 15.293861,198.775055 
	C285.530945,198.775055 555.412537,198.775055 826.243408,198.775452 
M498.944031,80.514442 
	C509.822266,100.541481 529.881714,111.143631 550.595337,107.814095 
	C571.003357,104.533676 588.526123,87.091530 591.829041,66.770142 
	C595.142456,46.384129 584.521240,25.551119 565.662476,15.445792 
	C547.096191,5.497170 525.134094,8.652822 509.333862,23.539444 
	C493.612885,38.351299 489.485931,60.056091 498.944031,80.514442 
M385.402954,101.310135 
	C385.402954,103.097099 385.402954,104.884071 385.402954,106.865944 
	C400.095490,106.865944 414.273712,107.582069 428.349731,106.688126 
	C446.732422,105.520660 457.701813,88.445038 451.979340,71.286713 
	C449.223053,63.022354 442.988373,58.246353 435.823181,55.817490 
	C438.622803,51.697498 442.181885,48.130741 443.759827,43.836075 
	C449.321686,28.698654 440.203064,13.491549 423.636749,11.735402 
	C411.178741,10.414764 398.468414,11.474342 385.403107,11.474342 
	C385.403107,41.129131 385.403107,70.741486 385.402954,101.310135 
M55.496662,49.188038 
	C49.739410,49.188038 43.982155,49.188038 37.785027,49.188038 
	C37.785027,36.136944 37.785027,23.726570 37.785027,11.313879 
	C30.581907,11.313879 23.835230,11.313879 17.140163,11.313879 
	C17.140163,43.323536 17.140163,75.037651 17.140163,106.674149 
	C24.225719,106.674149 30.962814,106.674149 38.207989,106.674149 
	C38.207989,93.798141 38.207989,81.246277 38.207989,68.852333 
	C48.820293,68.852333 58.910595,68.852333 69.600708,68.852333 
	C69.600708,81.723328 69.600708,94.265526 69.600708,106.633850 
	C77.454987,106.633850 84.694046,106.633850 91.806084,106.633850 
	C91.806084,74.657402 91.806084,43.051891 91.806084,11.277726 
	C84.342857,11.277726 77.112923,11.277726 69.379341,11.277726 
	C69.379341,23.934254 69.379341,36.342075 69.379341,49.188076 
	C64.755737,49.188076 60.625416,49.188076 55.496662,49.188038 
M823.881226,62.339817 
	C824.551270,61.387989 825.305420,60.484013 825.878418,59.476974 
	C832.105469,48.533348 832.874573,37.303291 826.682007,26.198313 
	C820.812012,15.671709 811.440979,10.841166 799.406982,10.997459 
	C792.075989,11.092671 784.742676,11.014576 777.410400,11.014405 
	C773.496521,11.014315 769.582581,11.014389 765.650330,11.014389 
	C765.650330,43.368256 765.650330,74.970177 765.650330,106.622879 
	C772.770447,106.622879 779.635376,106.622879 787.084595,106.622879 
	C787.084595,95.617775 787.084595,84.989983 787.084595,73.203003 
	C794.364990,84.127800 800.864502,93.983574 807.512634,103.738075 
	C808.430054,105.084061 810.051697,106.810646 811.401855,106.859818 
	C819.448608,107.152802 827.511353,107.004730 836.435059,107.004730 
	C826.982666,94.860245 818.156250,83.519958 809.814087,72.801872 
	C814.698059,69.231163 819.049255,66.049934 823.881226,62.339817 
M338.935150,47.006264 
	C340.350861,32.349716 335.688446,20.566336 321.936737,13.999150 
	C317.626160,11.940613 312.347992,11.327517 307.472748,11.149663 
	C296.397339,10.745624 285.297119,11.022346 274.337891,11.022346 
	C274.337891,43.394375 274.337891,75.114174 274.337891,106.658318 
	C281.436432,106.658318 288.181183,106.658318 295.197052,106.658318 
	C295.197052,95.570541 295.197052,84.823616 295.197052,73.061150 
	C296.717651,75.122757 297.706512,76.358147 298.582947,77.668709 
	C304.410950,86.383659 310.191284,95.130653 316.054596,103.821709 
	C316.848114,104.997932 317.993317,106.791313 319.019135,106.821472 
	C327.352417,107.066452 335.696014,106.959145 344.878571,106.959145 
	C335.380798,94.748367 326.626862,83.493866 317.551178,71.825729 
	C329.723724,67.898430 336.494446,59.787163 338.935150,47.006264 
M690.035034,83.637695 
	C682.504456,88.446877 674.481934,88.523781 666.732605,84.889931 
	C659.451233,81.475479 658.965759,74.251030 658.902039,67.276619 
	C658.806274,56.786381 658.857849,46.294765 658.851990,35.803738 
	C658.847473,27.692675 658.851074,19.581610 658.851074,11.253498 
	C651.601929,11.253498 644.859680,11.253498 638.172119,11.253498 
	C638.172119,33.747211 637.251770,56.058884 638.481934,78.251350 
	C639.364380,94.171394 649.871338,104.500198 665.723999,106.970566 
	C673.928467,108.249092 682.775330,108.201553 690.899475,106.582787 
	C705.206726,103.732018 713.467102,93.914406 715.971130,79.533653 
	C716.624084,75.783928 716.888367,71.924965 716.909302,68.113869 
	C717.005249,50.629177 716.957458,33.143661 716.941223,15.658459 
	C716.939880,14.216692 716.788147,12.775064 716.704407,11.300522 
	C709.627258,11.300522 702.886047,11.300522 695.816650,11.300522 
	C695.816650,13.380331 695.816711,15.183201 695.816650,16.986071 
	C695.815613,33.139076 695.909485,49.292927 695.766174,65.444672 
	C695.710266,71.750435 695.608948,78.196045 690.035034,83.637695 
M157.663651,106.806755 
	C159.679703,101.540092 161.886841,96.335587 163.628906,90.979805 
	C164.464859,88.409767 165.732147,87.686302 168.280426,87.717133 
	C178.272018,87.838036 188.268967,87.647293 198.255600,87.900589 
	C199.689957,87.936974 201.783661,89.468880 202.364044,90.825539 
	C204.623795,96.107750 206.396881,101.598152 208.254242,106.743042 
	C216.032150,106.743042 223.262314,106.743042 230.870316,106.743042 
	C230.240158,105.175529 229.756271,103.962456 229.265411,102.752220 
	C218.526443,76.274506 207.781281,49.799305 197.049530,23.318665 
	C192.044128,10.967818 192.054123,11.095391 178.571899,10.925175 
	C175.205704,10.882675 173.708481,11.874940 172.449158,15.023685 
	C161.407181,42.632111 150.156845,70.157188 138.977554,97.710732 
	C137.808640,100.591721 136.699493,103.496956 135.329498,106.984375 
	C142.941422,106.984375 149.876236,106.984375 157.663651,106.806755 
M151.306747,260.099670 
	C153.809052,264.597046 156.319504,269.089935 158.811676,273.592926 
	C162.260605,279.824554 162.879715,280.088745 169.920670,278.306671 
	C169.920670,265.865295 169.920670,253.454849 169.920670,240.879196 
	C167.202789,240.879196 164.759933,240.879196 161.740112,240.879196 
	C161.740112,248.210480 161.740112,255.353607 161.740112,262.496704 
	C157.775330,257.194763 154.294266,251.908768 151.847427,246.180954 
	C149.399994,240.451752 145.592041,239.679123 140.409363,241.151337 
	C140.409363,253.757172 140.409363,266.299561 140.409363,278.625031 
	C143.321411,278.625031 145.885910,278.625031 149.006500,278.625031 
	C149.006500,271.296844 149.006500,264.343933 149.006500,256.229462 
	C150.126083,258.044769 150.547470,258.727997 151.306747,260.099670 
M484.966003,262.137146 
	C487.123901,272.905487 495.556458,280.091156 505.331390,279.491211 
	C515.137085,278.889374 523.404785,270.891571 524.035767,261.397491 
	C524.778625,250.220093 516.069702,240.447876 505.030304,240.071625 
	C493.742950,239.686935 484.945282,248.954468 484.966003,262.137146 
M110.189384,251.547058 
	C104.446068,241.449554 94.602837,237.582077 85.047791,241.668732 
	C75.633690,245.695114 70.697540,256.025757 73.707626,265.402130 
	C77.093475,275.949036 87.980736,281.846954 98.138969,278.637177 
	C109.227646,275.133453 114.442444,264.071259 110.189384,251.547058 
M827.486084,275.074951 
	C839.295471,264.381317 836.498047,246.244003 821.982910,241.935577 
	C816.498840,240.307800 810.387756,240.792664 804.558105,240.314148 
	C804.558105,253.855652 804.558105,266.244476 804.558105,278.894012 
	C812.380615,278.875000 820.089661,280.327026 827.486084,275.074951 
M635.894653,264.223907 
	C632.936096,261.793152 630.241089,258.881042 626.940918,257.074188 
	C623.956665,255.440292 620.238281,255.203232 616.997131,253.952469 
	C615.851196,253.510269 614.416199,251.860199 614.462341,250.821503 
	C614.511169,249.723633 616.167358,247.808197 617.122620,247.807480 
	C619.909119,247.805374 624.267334,247.656769 625.189026,249.224152 
	C627.976562,253.964401 631.396851,251.925018 634.917847,251.925232 
	C633.326599,242.674042 625.301758,238.150314 615.507629,240.584549 
	C609.211853,242.149307 605.626526,245.998032 605.442078,251.389816 
	C605.268494,256.460846 608.037170,259.811493 614.345520,261.921326 
	C617.653259,263.027618 621.119263,263.711273 624.329834,265.032837 
	C625.623535,265.565399 627.379211,267.443970 627.222473,268.442627 
	C626.997742,269.873596 625.461975,271.594147 624.048828,272.252106 
	C619.439819,274.397888 615.890625,272.538116 611.935120,266.561127 
	C609.353149,266.561127 606.921143,266.561127 604.474243,266.561127 
	C605.157227,275.706207 611.762878,280.588257 622.125916,279.907074 
	C631.966431,279.260284 636.536072,274.375122 635.894653,264.223907 
M567.305176,275.361511 
	C570.220276,281.300507 575.280212,278.409698 580.405884,278.927063 
	C576.569336,273.928894 573.281433,269.645477 569.854858,265.181427 
	C570.766357,264.647949 571.326721,264.334869 571.872559,263.998260 
	C577.194519,260.715820 579.372864,255.380554 577.815979,249.453201 
	C576.425354,244.158737 572.089966,240.888626 565.898987,240.705780 
	C561.432312,240.573868 556.958740,240.680054 552.367065,240.680054 
	C552.367065,253.652344 552.367065,266.202942 552.367065,278.678528 
	C555.253235,278.678528 557.819336,278.678528 560.874878,278.678528 
	C560.874878,274.659210 560.874878,270.961060 560.874878,265.868225 
	C563.439819,269.621399 565.181152,272.169434 567.305176,275.361511 
M272.131653,279.006195 
	C274.994446,279.006195 277.857208,279.006195 281.455322,279.006195 
	C277.544403,273.893524 274.266541,269.608459 270.931152,265.248138 
	C272.535858,264.206024 273.871277,263.519714 274.992584,262.578369 
	C279.186951,259.057159 279.975769,254.339218 278.720123,249.413513 
	C277.524597,244.723679 274.336792,241.359726 269.326050,240.972214 
	C264.062195,240.565140 258.742371,240.881134 253.376282,240.881134 
	C253.376282,253.674606 253.376282,266.225616 253.376282,278.668488 
	C256.265778,278.668488 258.833954,278.668488 261.891327,278.668488 
	C261.891327,274.642914 261.891327,270.950226 261.891327,266.296387 
	C265.473846,271.097839 268.393402,275.010773 272.131653,279.006195 
M14.214575,245.700806 
	C7.441169,253.571320 6.343544,262.053101 11.073666,269.971802 
	C15.435482,277.273956 24.019819,280.876068 32.561569,278.988373 
	C39.417564,277.473236 45.134106,271.917877 45.743858,266.177795 
	C39.200413,265.773804 39.200413,265.773804 34.237183,269.463623 
	C29.762390,272.790314 23.602551,272.088837 19.854851,267.825775 
	C15.789732,263.201660 15.926514,255.887939 20.161003,251.454407 
	C24.099735,247.330536 30.668699,246.428528 34.473534,250.526703 
	C38.101295,254.434128 41.797081,253.748672 46.075935,253.293991 
	C41.973202,239.910599 26.566130,236.128159 14.214575,245.700806 
M404.137177,250.582230 
	C397.921875,240.867737 387.946716,237.508926 378.453217,241.934036 
	C369.261780,246.218384 364.812683,256.600616 368.056946,266.194366 
	C370.829041,274.391785 379.099884,280.006042 387.696289,279.525635 
	C396.102509,279.055847 403.160400,273.550812 404.751007,266.222015 
	C400.258972,265.605194 396.378601,265.710052 392.636047,269.502502 
	C388.829102,273.360199 381.969666,271.923279 378.398865,267.627167 
	C374.515625,262.955109 374.863678,255.476151 379.161499,251.239578 
	C383.392212,247.069107 389.980652,246.597794 393.867401,251.074799 
	C396.949829,254.625336 400.424652,253.326843 403.878876,253.471619 
	C404.051361,253.478851 404.284821,252.031830 404.137177,250.582230 
M330.274963,271.927307 
	C331.222412,274.219238 332.169891,276.511169 333.130951,278.835999 
	C336.017792,278.835999 338.803284,278.835999 342.015106,278.835999 
	C337.231934,267.007599 332.482605,255.511398 327.972412,243.922104 
	C326.938293,241.264862 325.469055,240.645401 322.798492,240.556870 
	C319.861511,240.459518 318.712006,241.711288 317.860626,244.209137 
	C316.790466,247.348846 315.352905,250.362106 314.108215,253.443817 
	C310.724548,261.821503 307.358978,270.206482 303.651611,279.420135 
	C307.550385,277.948120 312.181488,281.491028 313.533325,276.704437 
	C314.944946,271.706146 317.647736,270.610809 322.156097,271.153534 
	C324.622040,271.450409 327.140656,271.310028 330.274963,271.927307 
M440.427490,277.031128 
	C443.104767,277.893250 445.782043,278.755402 449.196289,279.854858 
	C449.196289,268.362671 449.196289,258.450684 449.196289,248.050766 
	C452.975800,248.050766 456.367981,248.050766 459.794769,248.050766 
	C459.794769,245.412140 459.794769,243.277313 459.794769,240.923035 
	C449.731903,240.923035 439.831696,240.923035 429.781555,240.923035 
	C429.781555,243.419586 429.781555,245.653366 429.781555,248.336243 
	C433.313721,248.336243 436.573364,248.336243 440.414490,248.336243 
	C440.414490,257.887054 440.414490,266.998199 440.427490,277.031128 
M226.952347,246.203445 
	C226.952347,244.451279 226.952347,242.699112 226.952347,240.891785 
	C216.551422,240.891785 206.783218,240.891785 196.754364,240.891785 
	C196.754364,243.355377 196.754364,245.590378 196.754364,248.265747 
	C200.243073,248.265747 203.508438,248.265747 207.449799,248.265747 
	C207.449799,258.721069 207.449799,268.760803 207.449799,278.645782 
	C210.700394,278.645782 213.261902,278.645782 216.196869,278.645782 
	C216.196869,268.365204 216.196869,258.450836 216.196869,248.957687 
	C220.068436,248.275620 223.491669,247.672546 226.952347,246.203445 
M748.661133,240.865982 
	C748.344421,243.183426 748.027649,245.500885 747.623413,248.458466 
	C751.822693,248.458466 755.207214,248.458466 759.006226,248.458466 
	C759.006226,258.927155 759.006226,268.829254 759.006226,278.765930 
	C761.867249,278.765930 764.287048,278.765930 767.301147,278.765930 
	C767.301147,268.522095 767.301147,258.496155 767.301147,248.109436 
	C771.158203,248.109436 774.420044,248.109436 777.781982,248.109436 
	C777.781982,245.489807 777.781982,243.266327 777.781982,240.744232 
	C768.202209,240.744232 758.916138,240.744232 748.661133,240.865982 
M700.712463,275.401428 
	C700.774231,277.138763 700.162048,279.119141 703.217102,279.047180 
	C709.647156,278.895630 716.083252,279.001160 722.522400,279.001160 
	C722.522400,276.171478 722.522400,273.826721 722.522400,271.061646 
	C717.885925,271.061646 713.644714,271.061646 708.951294,271.061646 
	C708.951294,260.753174 708.951294,250.869583 708.951294,240.955505 
	C706.054260,240.955505 703.635437,240.955505 700.711975,240.955505 
	C700.711975,252.267471 700.711975,263.344177 700.712463,275.401428 
z"/>
<path fill="#1B447E" opacity="1.000000" stroke="none" 
	d="
M812.999146,166.559143 
	C546.861389,166.559036 281.223480,166.559036 15.253534,166.559036 
	C15.253534,161.653107 15.253534,157.098007 15.253534,152.259583 
	C287.172760,152.259583 559.100525,152.259583 831.379211,152.259583 
	C831.379211,156.767960 831.379211,161.332474 831.379211,166.559265 
	C825.394897,166.559265 819.446960,166.559265 812.999146,166.559143 
z"/>
<path fill="#64E3E7" opacity="1.000000" stroke="none" 
	d="
M825.768799,198.775253 
	C555.412537,198.775055 285.530945,198.775055 15.293861,198.775055 
	C15.293861,193.726624 15.293861,189.191162 15.293861,184.371307 
	C287.395752,184.371307 559.237427,184.371307 831.800659,184.371307 
	C831.800659,188.430695 832.212158,192.431061 831.545715,196.242950 
	C831.350037,197.361923 828.095825,197.946136 825.768799,198.775253 
z"/>
<path fill="#16407B" opacity="1.000000" stroke="none" 
	d="
M498.787354,80.172440 
	C489.485931,60.056091 493.612885,38.351299 509.333862,23.539444 
	C525.134094,8.652822 547.096191,5.497170 565.662476,15.445792 
	C584.521240,25.551119 595.142456,46.384129 591.829041,66.770142 
	C588.526123,87.091530 571.003357,104.533676 550.595337,107.814095 
	C529.881714,111.143631 509.822266,100.541481 498.787354,80.172440 
M568.826965,47.954983 
	C568.169495,46.799122 567.550415,45.619423 566.848633,44.491123 
	C560.375854,34.084503 547.763977,28.625099 536.855896,31.491224 
	C525.094971,34.581444 515.557373,45.772240 514.981812,57.156776 
	C514.395874,68.746307 521.285645,79.898613 532.596191,84.875244 
	C543.368164,89.614861 553.075623,87.103127 561.658020,79.517052 
	C570.723633,71.503975 573.354187,60.367424 568.826965,47.954983 
z"/>
<path fill="#18427C" opacity="1.000000" stroke="none" 
	d="
M385.403015,100.831985 
	C385.403107,70.741486 385.403107,41.129131 385.403107,11.474342 
	C398.468414,11.474342 411.178741,10.414764 423.636749,11.735402 
	C440.203064,13.491549 449.321686,28.698654 443.759827,43.836075 
	C442.181885,48.130741 438.622803,51.697498 435.823181,55.817490 
	C442.988373,58.246353 449.223053,63.022354 451.979340,71.286713 
	C457.701813,88.445038 446.732422,105.520660 428.349731,106.688126 
	C414.273712,107.582069 400.095490,106.865944 385.402954,106.865944 
	C385.402954,104.884071 385.402954,103.097099 385.403015,100.831985 
M431.502289,80.915047 
	C431.845337,74.174156 428.972809,69.075989 423.166229,68.048370 
	C417.905121,67.117294 412.434875,67.368164 407.111206,67.100639 
	C407.111206,75.435364 407.111206,82.833115 407.111206,90.424400 
	C411.478333,90.424400 415.465546,90.492569 419.449524,90.408417 
	C425.423096,90.282272 429.562164,87.576126 431.502289,80.915047 
M406.740143,46.376007 
	C407.402679,47.577953 407.943817,49.705303 408.750153,49.811069 
	C411.333130,50.149887 414.097565,50.111366 416.640076,49.541210 
	C421.752960,48.394634 425.122467,43.716679 425.026825,38.594028 
	C424.935394,33.695885 421.406311,28.935196 416.656281,28.181810 
	C413.502197,27.681549 410.204468,28.086943 406.739166,28.086943 
	C406.739166,34.153713 406.739166,39.778389 406.740143,46.376007 
z"/>
<path fill="#16407B" opacity="1.000000" stroke="none" 
	d="
M55.995880,49.188057 
	C60.625416,49.188076 64.755737,49.188076 69.379341,49.188076 
	C69.379341,36.342075 69.379341,23.934254 69.379341,11.277726 
	C77.112923,11.277726 84.342857,11.277726 91.806084,11.277726 
	C91.806084,43.051891 91.806084,74.657402 91.806084,106.633850 
	C84.694046,106.633850 77.454987,106.633850 69.600708,106.633850 
	C69.600708,94.265526 69.600708,81.723328 69.600708,68.852333 
	C58.910595,68.852333 48.820293,68.852333 38.207989,68.852333 
	C38.207989,81.246277 38.207989,93.798141 38.207989,106.674149 
	C30.962814,106.674149 24.225719,106.674149 17.140163,106.674149 
	C17.140163,75.037651 17.140163,43.323536 17.140163,11.313879 
	C23.835230,11.313879 30.581907,11.313879 37.785027,11.313879 
	C37.785027,23.726570 37.785027,36.136944 37.785027,49.188038 
	C43.982155,49.188038 49.739410,49.188038 55.995880,49.188057 
z"/>
<path fill="#18427C" opacity="1.000000" stroke="none" 
	d="
M823.640869,62.604263 
	C819.049255,66.049934 814.698059,69.231163 809.814087,72.801872 
	C818.156250,83.519958 826.982666,94.860245 836.435059,107.004730 
	C827.511353,107.004730 819.448608,107.152802 811.401855,106.859818 
	C810.051697,106.810646 808.430054,105.084061 807.512634,103.738075 
	C800.864502,93.983574 794.364990,84.127800 787.084595,73.203003 
	C787.084595,84.989983 787.084595,95.617775 787.084595,106.622879 
	C779.635376,106.622879 772.770447,106.622879 765.650330,106.622879 
	C765.650330,74.970177 765.650330,43.368256 765.650330,11.014389 
	C769.582581,11.014389 773.496521,11.014315 777.410400,11.014405 
	C784.742676,11.014576 792.075989,11.092671 799.406982,10.997459 
	C811.440979,10.841166 820.812012,15.671709 826.682007,26.198313 
	C832.874573,37.303291 832.105469,48.533348 825.878418,59.476974 
	C825.305420,60.484013 824.551270,61.387989 823.640869,62.604263 
M807.687622,51.008099 
	C811.449707,45.133080 811.809021,39.038845 807.882629,33.265675 
	C802.557007,25.435141 794.454346,28.172789 786.985229,27.957012 
	C786.985229,37.494324 786.985229,46.543419 786.985229,56.012062 
	C794.129761,55.509163 801.571350,58.126362 807.687622,51.008099 
z"/>
<path fill="#153F7A" opacity="1.000000" stroke="none" 
	d="
M338.885376,47.446075 
	C336.494446,59.787163 329.723724,67.898430 317.551178,71.825729 
	C326.626862,83.493866 335.380798,94.748367 344.878571,106.959145 
	C335.696014,106.959145 327.352417,107.066452 319.019135,106.821472 
	C317.993317,106.791313 316.848114,104.997932 316.054596,103.821709 
	C310.191284,95.130653 304.410950,86.383659 298.582947,77.668709 
	C297.706512,76.358147 296.717651,75.122757 295.197052,73.061150 
	C295.197052,84.823616 295.197052,95.570541 295.197052,106.658318 
	C288.181183,106.658318 281.436432,106.658318 274.337891,106.658318 
	C274.337891,75.114174 274.337891,43.394375 274.337891,11.022346 
	C285.297119,11.022346 296.397339,10.745624 307.472748,11.149663 
	C312.347992,11.327517 317.626160,11.940613 321.936737,13.999150 
	C335.688446,20.566336 340.350861,32.349716 338.885376,47.446075 
M315.945953,51.338779 
	C319.964172,45.592236 320.397980,39.501587 316.677704,33.634892 
	C311.440613,25.376249 303.073425,28.173082 295.425659,27.892036 
	C295.425659,37.489105 295.425659,46.662735 295.425659,56.079914 
	C302.529175,55.486961 309.857422,58.034710 315.945953,51.338779 
z"/>
<path fill="#15407A" opacity="1.000000" stroke="none" 
	d="
M690.307007,83.374542 
	C695.608948,78.196045 695.710266,71.750435 695.766174,65.444672 
	C695.909485,49.292927 695.815613,33.139076 695.816650,16.986071 
	C695.816711,15.183201 695.816650,13.380331 695.816650,11.300522 
	C702.886047,11.300522 709.627258,11.300522 716.704407,11.300522 
	C716.788147,12.775064 716.939880,14.216692 716.941223,15.658459 
	C716.957458,33.143661 717.005249,50.629177 716.909302,68.113869 
	C716.888367,71.924965 716.624084,75.783928 715.971130,79.533653 
	C713.467102,93.914406 705.206726,103.732018 690.899475,106.582787 
	C682.775330,108.201553 673.928467,108.249092 665.723999,106.970566 
	C649.871338,104.500198 639.364380,94.171394 638.481934,78.251350 
	C637.251770,56.058884 638.172119,33.747211 638.172119,11.253498 
	C644.859680,11.253498 651.601929,11.253498 658.851074,11.253498 
	C658.851074,19.581610 658.847473,27.692675 658.851990,35.803738 
	C658.857849,46.294765 658.806274,56.786381 658.902039,67.276619 
	C658.965759,74.251030 659.451233,81.475479 666.732605,84.889931 
	C674.481934,88.523781 682.504456,88.446877 690.307007,83.374542 
z"/>
<path fill="#16417B" opacity="1.000000" stroke="none" 
	d="
M157.237350,106.895569 
	C149.876236,106.984375 142.941422,106.984375 135.329498,106.984375 
	C136.699493,103.496956 137.808640,100.591721 138.977554,97.710732 
	C150.156845,70.157188 161.407181,42.632111 172.449158,15.023685 
	C173.708481,11.874940 175.205704,10.882675 178.571899,10.925175 
	C192.054123,11.095391 192.044128,10.967818 197.049530,23.318665 
	C207.781281,49.799305 218.526443,76.274506 229.265411,102.752220 
	C229.756271,103.962456 230.240158,105.175529 230.870316,106.743042 
	C223.262314,106.743042 216.032150,106.743042 208.254242,106.743042 
	C206.396881,101.598152 204.623795,96.107750 202.364044,90.825539 
	C201.783661,89.468880 199.689957,87.936974 198.255600,87.900589 
	C188.268967,87.647293 178.272018,87.838036 168.280426,87.717133 
	C165.732147,87.686302 164.464859,88.409767 163.628906,90.979805 
	C161.886841,96.335587 159.679703,101.540092 157.237350,106.895569 
M191.193527,59.266747 
	C188.643799,52.072468 186.094086,44.878189 183.544373,37.683910 
	C183.181915,37.727947 182.819458,37.771984 182.457016,37.816021 
	C178.687851,48.460499 174.918701,59.104977 171.044647,70.045731 
	C179.319763,70.045731 186.933945,70.045731 194.979202,70.045731 
	C193.754669,66.498688 192.631012,63.243824 191.193527,59.266747 
z"/>
<path fill="#19437C" opacity="1.000000" stroke="none" 
	d="
M151.137787,259.755432 
	C150.547470,258.727997 150.126083,258.044769 149.006500,256.229462 
	C149.006500,264.343933 149.006500,271.296844 149.006500,278.625031 
	C145.885910,278.625031 143.321411,278.625031 140.409363,278.625031 
	C140.409363,266.299561 140.409363,253.757172 140.409363,241.151337 
	C145.592041,239.679123 149.399994,240.451752 151.847427,246.180954 
	C154.294266,251.908768 157.775330,257.194763 161.740112,262.496704 
	C161.740112,255.353607 161.740112,248.210480 161.740112,240.879196 
	C164.759933,240.879196 167.202789,240.879196 169.920670,240.879196 
	C169.920670,253.454849 169.920670,265.865295 169.920670,278.306671 
	C162.879715,280.088745 162.260605,279.824554 158.811676,273.592926 
	C156.319504,269.089935 153.809052,264.597046 151.137787,259.755432 
z"/>
<path fill="#1A447D" opacity="1.000000" stroke="none" 
	d="
M484.937469,261.702393 
	C484.945282,248.954468 493.742950,239.686935 505.030304,240.071625 
	C516.069702,240.447876 524.778625,250.220093 524.035767,261.397491 
	C523.404785,270.891571 515.137085,278.889374 505.331390,279.491211 
	C495.556458,280.091156 487.123901,272.905487 484.937469,261.702393 
M513.161072,266.579254 
	C517.880493,258.787506 514.654907,250.280197 506.427856,248.820663 
	C501.363800,247.922272 496.371460,250.607681 494.210876,255.392212 
	C492.120697,260.020752 493.618652,265.426849 497.901001,268.709747 
	C502.511536,272.244232 507.314270,271.743225 513.161072,266.579254 
z"/>
<path fill="#1A447D" opacity="1.000000" stroke="none" 
	d="
M110.390472,251.884216 
	C114.442444,264.071259 109.227646,275.133453 98.138969,278.637177 
	C87.980736,281.846954 77.093475,275.949036 73.707626,265.402130 
	C70.697540,256.025757 75.633690,245.695114 85.047791,241.668732 
	C94.602837,237.582077 104.446068,241.449554 110.390472,251.884216 
M81.705925,262.574768 
	C84.741638,269.622070 90.286819,272.587555 96.140793,270.294403 
	C101.637352,268.141266 104.746086,262.389465 103.262039,257.118683 
	C101.653023,251.404068 96.480339,247.932205 90.817551,248.766037 
	C84.718269,249.664139 81.010803,254.840744 81.705925,262.574768 
z"/>
<path fill="#1D467F" opacity="1.000000" stroke="none" 
	d="
M827.208130,275.312073 
	C820.089661,280.327026 812.380615,278.875000 804.558105,278.894012 
	C804.558105,266.244476 804.558105,253.855652 804.558105,240.314148 
	C810.387756,240.792664 816.498840,240.307800 821.982910,241.935577 
	C836.498047,246.244003 839.295471,264.381317 827.208130,275.312073 
M812.841309,263.444061 
	C812.841309,265.893799 812.841309,268.343506 812.841309,270.803223 
	C818.292175,271.713043 822.242432,270.038849 824.636719,265.683929 
	C826.956909,261.463806 826.810547,257.017822 824.025757,252.963470 
	C821.410156,249.155579 817.626831,248.177795 812.841309,248.884689 
	C812.841309,253.552292 812.841309,258.007935 812.841309,263.444061 
z"/>
<path fill="#1C457E" opacity="1.000000" stroke="none" 
	d="
M635.966187,264.629211 
	C636.536072,274.375122 631.966431,279.260284 622.125916,279.907074 
	C611.762878,280.588257 605.157227,275.706207 604.474243,266.561127 
	C606.921143,266.561127 609.353149,266.561127 611.935120,266.561127 
	C615.890625,272.538116 619.439819,274.397888 624.048828,272.252106 
	C625.461975,271.594147 626.997742,269.873596 627.222473,268.442627 
	C627.379211,267.443970 625.623535,265.565399 624.329834,265.032837 
	C621.119263,263.711273 617.653259,263.027618 614.345520,261.921326 
	C608.037170,259.811493 605.268494,256.460846 605.442078,251.389816 
	C605.626526,245.998032 609.211853,242.149307 615.507629,240.584549 
	C625.301758,238.150314 633.326599,242.674042 634.917847,251.925232 
	C631.396851,251.925018 627.976562,253.964401 625.189026,249.224152 
	C624.267334,247.656769 619.909119,247.805374 617.122620,247.807480 
	C616.167358,247.808197 614.511169,249.723633 614.462341,250.821503 
	C614.416199,251.860199 615.851196,253.510269 616.997131,253.952469 
	C620.238281,255.203232 623.956665,255.440292 626.940918,257.074188 
	C630.241089,258.881042 632.936096,261.793152 635.966187,264.629211 
z"/>
<path fill="#1B457E" opacity="1.000000" stroke="none" 
	d="
M567.113831,275.039490 
	C565.181152,272.169434 563.439819,269.621399 560.874878,265.868225 
	C560.874878,270.961060 560.874878,274.659210 560.874878,278.678528 
	C557.819336,278.678528 555.253235,278.678528 552.367065,278.678528 
	C552.367065,266.202942 552.367065,253.652344 552.367065,240.680054 
	C556.958740,240.680054 561.432312,240.573868 565.898987,240.705780 
	C572.089966,240.888626 576.425354,244.158737 577.815979,249.453201 
	C579.372864,255.380554 577.194519,260.715820 571.872559,263.998260 
	C571.326721,264.334869 570.766357,264.647949 569.854858,265.181427 
	C573.281433,269.645477 576.569336,273.928894 580.405884,278.927063 
	C575.280212,278.409698 570.220276,281.300507 567.113831,275.039490 
M560.702820,257.058075 
	C563.121887,257.224884 566.324646,258.393921 567.744873,257.283356 
	C569.236389,256.117096 570.016907,252.424301 569.336304,250.444870 
	C568.044006,246.686401 564.393982,247.025436 560.667603,247.441681 
	C560.667603,250.606094 560.667603,253.385834 560.702820,257.058075 
z"/>
<path fill="#1B457E" opacity="1.000000" stroke="none" 
	d="
M271.722321,278.964966 
	C268.393402,275.010773 265.473846,271.097839 261.891327,266.296387 
	C261.891327,270.950226 261.891327,274.642914 261.891327,278.668488 
	C258.833954,278.668488 256.265778,278.668488 253.376282,278.668488 
	C253.376282,266.225616 253.376282,253.674606 253.376282,240.881134 
	C258.742371,240.881134 264.062195,240.565140 269.326050,240.972214 
	C274.336792,241.359726 277.524597,244.723679 278.720123,249.413513 
	C279.975769,254.339218 279.186951,259.057159 274.992584,262.578369 
	C273.871277,263.519714 272.535858,264.206024 270.931152,265.248138 
	C274.266541,269.608459 277.544403,273.893524 281.455322,279.006195 
	C277.857208,279.006195 274.994446,279.006195 271.722321,278.964966 
M262.501251,247.359161 
	C262.147217,250.990540 261.793152,254.621918 261.410339,258.548309 
	C266.267303,258.834991 270.106506,258.944611 270.974304,253.789597 
	C271.673279,249.637711 269.091461,247.514450 262.501251,247.359161 
z"/>
<path fill="#1B457E" opacity="1.000000" stroke="none" 
	d="
M14.477533,245.455231 
	C26.566130,236.128159 41.973202,239.910599 46.075935,253.293991 
	C41.797081,253.748672 38.101295,254.434128 34.473534,250.526703 
	C30.668699,246.428528 24.099735,247.330536 20.161003,251.454407 
	C15.926514,255.887939 15.789732,263.201660 19.854851,267.825775 
	C23.602551,272.088837 29.762390,272.790314 34.237183,269.463623 
	C39.200413,265.773804 39.200413,265.773804 45.743858,266.177795 
	C45.134106,271.917877 39.417564,277.473236 32.561569,278.988373 
	C24.019819,280.876068 15.435482,277.273956 11.073666,269.971802 
	C6.343544,262.053101 7.441169,253.571320 14.477533,245.455231 
z"/>
<path fill="#1B457E" opacity="1.000000" stroke="none" 
	d="
M404.313538,250.922089 
	C404.284821,252.031830 404.051361,253.478851 403.878876,253.471619 
	C400.424652,253.326843 396.949829,254.625336 393.867401,251.074799 
	C389.980652,246.597794 383.392212,247.069107 379.161499,251.239578 
	C374.863678,255.476151 374.515625,262.955109 378.398865,267.627167 
	C381.969666,271.923279 388.829102,273.360199 392.636047,269.502502 
	C396.378601,265.710052 400.258972,265.605194 404.751160,266.222534 
	C403.160400,273.550812 396.102509,279.055847 387.696289,279.525635 
	C379.099884,280.006042 370.829041,274.391785 368.056946,266.194366 
	C364.812683,256.600616 369.261780,246.218384 378.453217,241.934036 
	C387.946716,237.508926 397.921875,240.867737 404.313538,250.922089 
z"/>
<path fill="#1A447D" opacity="1.000000" stroke="none" 
	d="
M329.955231,271.647064 
	C327.140656,271.310028 324.622040,271.450409 322.156097,271.153534 
	C317.647736,270.610809 314.944946,271.706146 313.533325,276.704437 
	C312.181488,281.491028 307.550385,277.948120 303.651611,279.420135 
	C307.358978,270.206482 310.724548,261.821503 314.108215,253.443817 
	C315.352905,250.362106 316.790466,247.348846 317.860626,244.209137 
	C318.712006,241.711288 319.861511,240.459518 322.798492,240.556870 
	C325.469055,240.645401 326.938293,241.264862 327.972412,243.922104 
	C332.482605,255.511398 337.231934,267.007599 342.015106,278.835999 
	C338.803284,278.835999 336.017792,278.835999 333.130951,278.835999 
	C332.169891,276.511169 331.222412,274.219238 329.955231,271.647064 
M326.728241,261.248566 
	C325.558411,258.155365 324.388550,255.062195 322.779083,250.806625 
	C321.016937,256.028534 319.726227,259.853394 318.240570,264.255981 
	C320.754364,264.255981 322.595032,264.503265 324.318207,264.160309 
	C325.302338,263.964447 326.095093,262.806976 326.728241,261.248566 
z"/>
<path fill="#1B457E" opacity="1.000000" stroke="none" 
	d="
M440.420990,276.570251 
	C440.414490,266.998199 440.414490,257.887054 440.414490,248.336243 
	C436.573364,248.336243 433.313721,248.336243 429.781555,248.336243 
	C429.781555,245.653366 429.781555,243.419586 429.781555,240.923035 
	C439.831696,240.923035 449.731903,240.923035 459.794769,240.923035 
	C459.794769,243.277313 459.794769,245.412140 459.794769,248.050766 
	C456.367981,248.050766 452.975800,248.050766 449.196289,248.050766 
	C449.196289,258.450684 449.196289,268.362671 449.196289,279.854858 
	C445.782043,278.755402 443.104767,277.893250 440.420990,276.570251 
z"/>
<path fill="#1B457E" opacity="1.000000" stroke="none" 
	d="
M226.933624,246.636444 
	C223.491669,247.672546 220.068436,248.275620 216.196869,248.957687 
	C216.196869,258.450836 216.196869,268.365204 216.196869,278.645782 
	C213.261902,278.645782 210.700394,278.645782 207.449799,278.645782 
	C207.449799,268.760803 207.449799,258.721069 207.449799,248.265747 
	C203.508438,248.265747 200.243073,248.265747 196.754364,248.265747 
	C196.754364,245.590378 196.754364,243.355377 196.754364,240.891785 
	C206.783218,240.891785 216.551422,240.891785 226.952347,240.891785 
	C226.952347,242.699112 226.952347,244.451279 226.933624,246.636444 
z"/>
<path fill="#133E79" opacity="1.000000" stroke="none" 
	d="
M749.145630,240.805115 
	C758.916138,240.744232 768.202209,240.744232 777.781982,240.744232 
	C777.781982,243.266327 777.781982,245.489807 777.781982,248.109436 
	C774.420044,248.109436 771.158203,248.109436 767.301147,248.109436 
	C767.301147,258.496155 767.301147,268.522095 767.301147,278.765930 
	C764.287048,278.765930 761.867249,278.765930 759.006226,278.765930 
	C759.006226,268.829254 759.006226,258.927155 759.006226,248.458466 
	C755.207214,248.458466 751.822693,248.458466 747.623413,248.458466 
	C748.027649,245.500885 748.344421,243.183426 749.145630,240.805115 
z"/>
<path fill="#16417B" opacity="1.000000" stroke="none" 
	d="
M700.712219,274.911133 
	C700.711975,263.344177 700.711975,252.267471 700.711975,240.955505 
	C703.635437,240.955505 706.054260,240.955505 708.951294,240.955505 
	C708.951294,250.869583 708.951294,260.753174 708.951294,271.061646 
	C713.644714,271.061646 717.885925,271.061646 722.522400,271.061646 
	C722.522400,273.826721 722.522400,276.171478 722.522400,279.001160 
	C716.083252,279.001160 709.647156,278.895630 703.217102,279.047180 
	C700.162048,279.119141 700.774231,277.138763 700.712219,274.911133 
z"/>
<path fill="#FDFEFE" opacity="1.000000" stroke="none" 
	d="
M568.962280,48.319923 
	C573.354187,60.367424 570.723633,71.503975 561.658020,79.517052 
	C553.075623,87.103127 543.368164,89.614861 532.596191,84.875244 
	C521.285645,79.898613 514.395874,68.746307 514.981812,57.156776 
	C515.557373,45.772240 525.094971,34.581444 536.855896,31.491224 
	C547.763977,28.625099 560.375854,34.084503 566.848633,44.491123 
	C567.550415,45.619423 568.169495,46.799122 568.962280,48.319923 
z"/>
<path fill="#FAFBFC" opacity="1.000000" stroke="none" 
	d="
M431.394348,81.284927 
	C429.562164,87.576126 425.423096,90.282272 419.449524,90.408417 
	C415.465546,90.492569 411.478333,90.424400 407.111206,90.424400 
	C407.111206,82.833115 407.111206,75.435364 407.111206,67.100639 
	C412.434875,67.368164 417.905121,67.117294 423.166229,68.048370 
	C428.972809,69.075989 431.845337,74.174156 431.394348,81.284927 
z"/>
<path fill="#FDFEFE" opacity="1.000000" stroke="none" 
	d="
M406.739655,45.889538 
	C406.739166,39.778389 406.739166,34.153713 406.739166,28.086943 
	C410.204468,28.086943 413.502197,27.681549 416.656281,28.181810 
	C421.406311,28.935196 424.935394,33.695885 425.026825,38.594028 
	C425.122467,43.716679 421.752960,48.394634 416.640076,49.541210 
	C414.097565,50.111366 411.333130,50.149887 408.750153,49.811069 
	C407.943817,49.705303 407.402679,47.577953 406.739655,45.889538 
z"/>
<path fill="#FDFEFE" opacity="1.000000" stroke="none" 
	d="
M807.430725,51.296761 
	C801.571350,58.126362 794.129761,55.509163 786.985229,56.012062 
	C786.985229,46.543419 786.985229,37.494324 786.985229,27.957012 
	C794.454346,28.172789 802.557007,25.435141 807.882629,33.265675 
	C811.809021,39.038845 811.449707,45.133080 807.430725,51.296761 
z"/>
<path fill="#FCFCFD" opacity="1.000000" stroke="none" 
	d="
M315.707397,51.631729 
	C309.857422,58.034710 302.529175,55.486961 295.425659,56.079914 
	C295.425659,46.662735 295.425659,37.489105 295.425659,27.892036 
	C303.073425,28.173082 311.440613,25.376249 316.677704,33.634892 
	C320.397980,39.501587 319.964172,45.592236 315.707397,51.631729 
z"/>
<path fill="#FAFBFC" opacity="1.000000" stroke="none" 
	d="
M191.350433,59.627857 
	C192.631012,63.243824 193.754669,66.498688 194.979202,70.045731 
	C186.933945,70.045731 179.319763,70.045731 171.044647,70.045731 
	C174.918701,59.104977 178.687851,48.460499 182.457016,37.816021 
	C182.819458,37.771984 183.181915,37.727947 183.544373,37.683910 
	C186.094086,44.878189 188.643799,52.072468 191.350433,59.627857 
z"/>
<path fill="#FAFBFC" opacity="1.000000" stroke="none" 
	d="
M512.928711,266.872803 
	C507.314270,271.743225 502.511536,272.244232 497.901001,268.709747 
	C493.618652,265.426849 492.120697,260.020752 494.210876,255.392212 
	C496.371460,250.607681 501.363800,247.922272 506.427856,248.820663 
	C514.654907,250.280197 517.880493,258.787506 512.928711,266.872803 
z"/>
<path fill="#FAFBFC" opacity="1.000000" stroke="none" 
	d="
M81.579865,262.207520 
	C81.010803,254.840744 84.718269,249.664139 90.817551,248.766037 
	C96.480339,247.932205 101.653023,251.404068 103.262039,257.118683 
	C104.746086,262.389465 101.637352,268.141266 96.140793,270.294403 
	C90.286819,272.587555 84.741638,269.622070 81.579865,262.207520 
z"/>
<path fill="#FCFCFD" opacity="1.000000" stroke="none" 
	d="
M812.841309,262.953796 
	C812.841309,258.007935 812.841309,253.552292 812.841309,248.884689 
	C817.626831,248.177795 821.410156,249.155579 824.025757,252.963470 
	C826.810547,257.017822 826.956909,261.463806 824.636719,265.683929 
	C822.242432,270.038849 818.292175,271.713043 812.841309,270.803223 
	C812.841309,268.343506 812.841309,265.893799 812.841309,262.953796 
z"/>
<path fill="#F3F5F8" opacity="1.000000" stroke="none" 
	d="
M560.685181,256.611816 
	C560.667603,253.385834 560.667603,250.606094 560.667603,247.441681 
	C564.393982,247.025436 568.044006,246.686401 569.336304,250.444870 
	C570.016907,252.424301 569.236389,256.117096 567.744873,257.283356 
	C566.324646,258.393921 563.121887,257.224884 560.685181,256.611816 
z"/>
<path fill="#F3F5F8" opacity="1.000000" stroke="none" 
	d="
M262.933868,247.292572 
	C269.091461,247.514450 271.673279,249.637711 270.974304,253.789597 
	C270.106506,258.944611 266.267303,258.834991 261.410339,258.548309 
	C261.793152,254.621918 262.147217,250.990540 262.933868,247.292572 
z"/>
<path fill="#F3F5F8" opacity="1.000000" stroke="none" 
	d="
M326.851135,261.665527 
	C326.095093,262.806976 325.302338,263.964447 324.318207,264.160309 
	C322.595032,264.503265 320.754364,264.255981 318.240570,264.255981 
	C319.726227,259.853394 321.016937,256.028534 322.779083,250.806625 
	C324.388550,255.062195 325.558411,258.155365 326.851135,261.665527 
z"/>
</svg>